<?xml version="1.0" encoding="UTF-8" standalone="no"?>
<svg
   xmlns:dc="http://purl.org/dc/elements/1.1/"
   xmlns:cc="http://creativecommons.org/ns#"
   xmlns:rdf="http://www.w3.org/1999/02/22-rdf-syntax-ns#"
   xmlns:svg="http://www.w3.org/2000/svg"
   xmlns="http://www.w3.org/2000/svg"
   xmlns:xlink="http://www.w3.org/1999/xlink"
   xmlns:sodipodi="http://sodipodi.sourceforge.net/DTD/sodipodi-0.dtd"
   xmlns:inkscape="http://www.inkscape.org/namespaces/inkscape"
   data-v-fde0c5aa=""
   viewBox="0 0 219.99998 30.228951"
   class="iconLeft"
   version="1.1"
   id="svg33"
   sodipodi:docname="default.svg"
   width="219.99998"
   height="30.228951"
   inkscape:version="0.92.5 (2060ec1f9f, 2020-04-08)">
  <metadata
     id="metadata37">
    <rdf:RDF>
      <cc:Work
         rdf:about="">
        <dc:format>image/svg+xml</dc:format>
        <dc:type
           rdf:resource="http://purl.org/dc/dcmitype/StillImage" />
        <dc:title></dc:title>
      </cc:Work>
    </rdf:RDF>
  </metadata>
  <sodipodi:namedview
     pagecolor="#ffffff"
     bordercolor="#666666"
     borderopacity="1"
     objecttolerance="10"
     gridtolerance="10"
     guidetolerance="10"
     inkscape:pageopacity="0"
     inkscape:pageshadow="2"
     inkscape:window-width="2560"
     inkscape:window-height="1308"
     id="namedview35"
     showgrid="false"
     fit-margin-top="0"
     fit-margin-left="0"
     fit-margin-right="0"
     fit-margin-bottom="0"
     inkscape:zoom="0.78666667"
     inkscape:cx="110"
     inkscape:cy="15.114475"
     inkscape:window-x="0"
     inkscape:window-y="27"
     inkscape:window-maximized="1"
     inkscape:current-layer="svg33" />
  <!---->
  <defs
     data-v-fde0c5aa=""
     id="defs2">
    <!---->
    <linearGradient
       inkscape:collect="always"
       xlink:href="#1e8f4058-73ca-4962-896b-f31bb80f868a"
       id="linearGradient844"
       gradientTransform="scale(1.4911664,0.67061597)"
       x1="11.802841"
       y1="49.804958"
       x2="48.485535"
       y2="49.804958"
       gradientUnits="userSpaceOnUse" />
    <linearGradient
       inkscape:collect="always"
       xlink:href="#1e8f4058-73ca-4962-896b-f31bb80f868a"
       id="linearGradient846"
       gradientTransform="scale(0.97850189,1.0219704)"
       x1="31.063614"
       y1="32.182043"
       x2="38.119497"
       y2="32.182043"
       gradientUnits="userSpaceOnUse" />
    <linearGradient
       inkscape:collect="always"
       xlink:href="#1e8f4058-73ca-4962-896b-f31bb80f868a"
       id="linearGradient848"
       gradientTransform="scale(1.9014252,0.5259213)"
       x1="15.670471"
       y1="61.606176"
       x2="31.4523"
       y2="61.606176"
       gradientUnits="userSpaceOnUse" />
    <linearGradient
       inkscape:collect="always"
       xlink:href="#1e8f4058-73ca-4962-896b-f31bb80f868a"
       id="linearGradient850"
       gradientTransform="scale(0.92820289,1.0773507)"
       x1="37.225894"
       y1="27.846087"
       x2="65.07198"
       y2="27.846087"
       gradientUnits="userSpaceOnUse" />
    <linearGradient
       inkscape:collect="always"
       xlink:href="#1e8f4058-73ca-4962-896b-f31bb80f868a"
       id="linearGradient852"
       x1="42.999999"
       y1="43.699999"
       x2="47.199998"
       y2="43.699999"
       gradientUnits="userSpaceOnUse" />
    <linearGradient
       inkscape:collect="always"
       xlink:href="#1e8f4058-73ca-4962-896b-f31bb80f868a"
       id="linearGradient854"
       x1="43"
       y1="43.7"
       x2="47.2"
       y2="43.7"
       gradientUnits="userSpaceOnUse" />
    <linearGradient
       inkscape:collect="always"
       xlink:href="#1e8f4058-73ca-4962-896b-f31bb80f868a"
       id="linearGradient856"
       x1="42.999995"
       y1="43.700003"
       x2="47.199996"
       y2="43.700003"
       gradientUnits="userSpaceOnUse" />
    <linearGradient
       inkscape:collect="always"
       xlink:href="#1e8f4058-73ca-4962-896b-f31bb80f868a"
       id="linearGradient858"
       gradientTransform="scale(1.3503086,0.74057145)"
       x1="13.034057"
       y1="40.509258"
       x2="53.543316"
       y2="40.509258"
       gradientUnits="userSpaceOnUse" />
  </defs>
  <defs
     data-v-fde0c5aa=""
     id="defs6">
    <!---->
  </defs>
  <g
     data-v-fde0c5aa=""
     id="b9618d24-5a23-4caa-9216-a622eb832641"
     transform="matrix(2.0213272,0,0,2.0213272,65.40888,-2.9460851)"
     style="fill:#000000">
    <path
       d="M 2.55,13.75 H 1.34 V 3.95 H 7.49 V 5.1 H 2.55 V 8.11 H 6.01 V 9.25 H 2.55 Z m 13.23,-9.8 v 1.1 h -2.24 v 7.59 h 2.24 v 1.11 h -5.69 v -1.11 h 2.24 V 5.05 h -2.24 v -1.1 z m 2.94,0 h 6.02 v 0.89 l -4.79,7.76 h 4.75 v 1.15 H 18.41 V 12.87 L 23.2,5.08 h -4.48 z m 8.62,0 h 6.02 v 0.89 l -4.79,7.76 h 4.75 v 1.15 h -6.29 v -0.88 l 4.79,-7.79 h -4.48 z m 20.15,9.8 h -3.03 v -9.8 h 2.82 v 0 q 1.61,0 2.32,0.73 v 0 0 q 0.72,0.74 0.72,1.84 v 0 0 q 0,0.72 -0.39,1.25 v 0 0 Q 49.55,8.3 48.86,8.58 v 0 0 q 0.83,0.23 1.32,0.86 v 0 0 q 0.49,0.63 0.49,1.52 v 0 0 q 0,1.16 -0.76,1.98 v 0 0 q -0.76,0.81 -2.42,0.81 z m -1.82,-8.7 v 3.07 h 1.37 v 0 q 1.04,0 1.58,-0.42 v 0 0 q 0.53,-0.42 0.53,-1.15 v 0 0 q 0,-1.5 -1.8,-1.5 v 0 z m 0,4.15 v 3.44 h 1.97 v 0 q 1.01,0 1.44,-0.46 v 0 0 q 0.42,-0.46 0.42,-1.16 v 0 0 Q 49.5,9.2 47.19,9.2 v 0 z m 10.39,4.72 v 0 0 q -3.15,0 -3.15,-3.88 v 0 -6.09 h 1.2 v 6.09 0 q 0,2.76 1.95,2.76 v 0 0 Q 58,12.8 58,10.04 v 0 -6.09 h 1.22 v 6.09 0 q 0,2.01 -0.84,2.95 v 0 0 q -0.84,0.93 -2.32,0.93 z m 5.78,-9.97 h 6.02 v 0.89 l -4.79,7.76 h 4.75 v 1.15 h -6.29 v -0.88 l 4.79,-7.79 h -4.48 z m 8.62,0 h 6.02 v 0.89 l -4.79,7.76 h 4.75 v 1.15 h -6.29 v -0.88 l 4.79,-7.79 h -4.48 z"
       id="path8"
       inkscape:connector-curvature="0" />
  </g>
  <defs
     data-v-fde0c5aa=""
     id="defs16">
    <linearGradient
       data-v-fde0c5aa=""
       gradientTransform="rotate(25)"
       id="1e8f4058-73ca-4962-896b-f31bb80f868a"
       x1="0"
       y1="0"
       x2="1"
       y2="0">
      <stop
         data-v-fde0c5aa=""
         offset="0%"
         stop-color="#006678"
         stop-opacity="1"
         id="stop11" />
      <stop
         data-v-fde0c5aa=""
         offset="100%"
         stop-color="#4FA8FF"
         stop-opacity="1"
         id="stop13" />
    </linearGradient>
  </defs>
  <g
     data-v-fde0c5aa=""
     id="4a4ad654-958c-4977-8e64-1bf76beb0dd6"
     transform="matrix(1.0076317,0,0,1.0076317,-17.734318,-30.228945)"
     style="fill:url(#linearGradient858);stroke:none">
    <path
       d="m 20.2,53.1 c -0.5,0 -1,-0.3 -1.2,-0.8 -0.9,-2.1 -1.4,-4.4 -1.4,-6.8 0,-2.4 0.5,-4.6 1.4,-6.8 0.3,-0.6 1,-0.9 1.6,-0.7 0.6,0.3 0.9,1 0.7,1.6 -0.8,1.8 -1.2,3.8 -1.2,5.8 0,2 0.4,4 1.2,5.8 0.3,0.6 0,1.4 -0.7,1.6 -0.1,0.3 -0.3,0.3 -0.4,0.3 z m 4.9,-2.4 c -0.4,0 -0.8,-0.2 -0.9,-0.6 -0.6,-1.5 -0.9,-3 -0.9,-4.6 0,-1.6 0.3,-3.1 0.9,-4.6 0.2,-0.5 0.8,-0.7 1.3,-0.5 0.5,0.2 0.7,0.8 0.5,1.3 -0.5,1.2 -0.8,2.5 -0.8,3.8 0,1.3 0.3,2.6 0.8,3.8 0.2,0.5 0,1.1 -0.5,1.3 -0.1,0.1 -0.2,0.1 -0.4,0.1 z m 44.7,2.4 c -0.2,0 -0.3,0 -0.5,-0.1 -0.6,-0.3 -0.9,-1 -0.7,-1.6 0.8,-1.8 1.2,-3.8 1.2,-5.8 0,-2 -0.4,-4 -1.2,-5.8 -0.3,-0.6 0,-1.4 0.7,-1.6 0.6,-0.3 1.4,0 1.6,0.7 0.9,2.1 1.4,4.4 1.4,6.8 0,2.4 -0.5,4.6 -1.4,6.8 -0.1,0.3 -0.6,0.6 -1.1,0.6 z m -4.9,-2.4 c -0.1,0 -0.3,0 -0.4,-0.1 -0.5,-0.2 -0.7,-0.8 -0.5,-1.3 0.5,-1.2 0.8,-2.5 0.8,-3.8 0,-1.3 -0.3,-2.6 -0.8,-3.8 -0.2,-0.5 0,-1.1 0.5,-1.3 0.5,-0.2 1.1,0 1.3,0.5 0.6,1.5 0.9,3 0.9,4.6 0,1.6 -0.3,3.1 -0.9,4.6 -0.2,0.4 -0.5,0.6 -0.9,0.6 z M 45.1,58 c -6.8,0 -12.3,-5.5 -12.3,-12.3 0,-6.8 5.5,-12.3 12.3,-12.3 6.8,0 12.3,5.6 12.3,12.4 0,6.7 -5.5,12.2 -12.3,12.2 z m 0,-22.5 c -5.7,0 -10.3,4.6 -10.3,10.3 0,5.7 4.6,10.2 10.3,10.2 5.7,0 10.3,-4.6 10.3,-10.3 0,-5.7 -4.6,-10.2 -10.3,-10.2 z"
       id="path18"
       inkscape:connector-curvature="0"
       style="fill:url(#linearGradient844)" />
    <path
       d="m 32.1,40.1 c 1,-2.5 2.9,-4.6 5.2,-5.9 -0.8,-0.8 -1.9,-1.4 -3.1,-1.3 -2.2,0.1 -3.9,1.9 -3.8,4.1 0,1.3 0.7,2.4 1.7,3.1 z"
       id="path20"
       inkscape:connector-curvature="0"
       style="fill:url(#linearGradient846)" />
    <path
       d="m 32.1,40.6 c -0.1,0 -0.2,0 -0.3,-0.1 -1.2,-0.8 -1.9,-2.1 -2,-3.5 -0.1,-2.5 1.8,-4.6 4.3,-4.6 h 0.2 c 1.3,0 2.5,0.5 3.3,1.5 0.1,0.1 0.1,0.3 0.1,0.4 0,0.1 -0.1,0.3 -0.2,0.4 -2.2,1.3 -4,3.3 -5,5.7 l -0.3,0.3 c 0,-0.1 -0.1,-0.1 -0.1,-0.1 z m 2.2,-7.3 h -0.1 c -1.9,0.1 -3.4,1.7 -3.4,3.6 0,0.9 0.4,1.7 1,2.3 1,-2.1 2.6,-3.9 4.6,-5.2 -0.5,-0.4 -1.3,-0.7 -2.1,-0.7 z m 23.8,6.8 c -1,-2.5 -2.9,-4.6 -5.2,-5.9 0.8,-0.8 1.9,-1.4 3.1,-1.3 2.2,0.1 3.9,1.9 3.8,4.1 0,1.3 -0.7,2.4 -1.7,3.1 z"
       id="path22"
       inkscape:connector-curvature="0"
       style="fill:url(#linearGradient848)" />
    <path
       d="M 58.1,40.6 H 58 c -0.1,0 -0.3,-0.1 -0.3,-0.3 -1,-2.4 -2.7,-4.4 -5,-5.7 -0.1,-0.1 -0.2,-0.2 -0.2,-0.4 0,-0.1 0,-0.3 0.1,-0.4 0.9,-0.9 2.1,-1.5 3.3,-1.5 h 0.2 c 1.2,0 2.3,0.6 3.1,1.4 0.8,0.9 1.2,2 1.2,3.2 -0.1,1.4 -0.8,2.7 -2,3.5 -0.1,0.2 -0.2,0.2 -0.3,0.2 z m -4.4,-6.5 c 2,1.3 3.6,3.1 4.6,5.2 0.6,-0.6 1,-1.4 1,-2.3 0,-0.9 -0.3,-1.8 -0.9,-2.5 -0.6,-0.7 -1.5,-1.1 -2.4,-1.1 h -0.1 c -0.8,-0.1 -1.6,0.2 -2.2,0.7 z m -5.2,16 C 48.2,50.1 48,50 47.8,49.8 l -3.4,-3.3 c -0.2,-0.2 -0.3,-0.4 -0.3,-0.7 v -6.9 c 0,-0.6 0.4,-1 1,-1 0.6,0 1,0.4 1,1 v 6.5 l 3.1,3 c 0.4,0.4 0.4,1 0,1.4 -0.2,0.2 -0.4,0.3 -0.7,0.3 z M 45.1,35.5 c -0.5,0 -1,-0.4 -1,-1 V 32 H 43 c -0.6,0 -1,-0.4 -1,-1 0,-0.6 0.4,-1 1,-1 h 4.3 c 0.6,0 1,0.4 1,1 0,0.6 -0.4,1 -1,1 h -1.2 v 2.5 c 0,0.5 -0.4,1 -1,1 z M 35.6,60 C 35.4,60 35.2,59.9 35,59.8 34.5,59.5 34.4,58.9 34.8,58.4 l 2.9,-4.1 c 0.3,-0.5 0.9,-0.6 1.4,-0.2 0.5,0.3 0.6,0.9 0.2,1.4 l -2.9,4.1 C 36.2,59.9 35.9,60 35.6,60 Z m 19.1,0 c -0.3,0 -0.6,-0.1 -0.8,-0.4 L 51,55.5 c -0.3,-0.5 -0.2,-1.1 0.2,-1.4 0.5,-0.3 1.1,-0.2 1.4,0.2 l 2.9,4.1 c 0.3,0.5 0.2,1.1 -0.2,1.4 -0.2,0.1 -0.4,0.2 -0.6,0.2 z"
       id="path24"
       inkscape:connector-curvature="0"
       style="fill:url(#linearGradient850)" />
    <g
       id="g30"
       style="fill:url(#linearGradient856)">
      <circle
         cx="45.099998"
         cy="45.799999"
         r="2.0999999"
         id="circle26"
         style="fill:url(#linearGradient852)" />
      <path
         d="m 45.1,44.7 c 0.6,0 1.1,0.5 1.1,1.1 0,0.6 -0.5,1.1 -1.1,1.1 -0.6,0 -1.1,-0.5 -1.1,-1.1 0,-0.6 0.5,-1.1 1.1,-1.1 m 0,-1 c -1.1,0 -2.1,0.9 -2.1,2.1 0,1.1 0.9,2.1 2.1,2.1 1.2,0 2.1,-0.9 2.1,-2.1 0,-1.2 -1,-2.1 -2.1,-2.1 z"
         id="path28"
         inkscape:connector-curvature="0"
         style="fill:url(#linearGradient854)" />
    </g>
  </g>
  <!---->
</svg>
